<svg width="57" height="51" viewBox="0 0 57 51" fill="none" xmlns="http://www.w3.org/2000/svg">
<path d="M52.4521 29.2868C51.5499 17.3317 43.1395 9.08246 29.1267 9.08246C15.114 9.08246 6.68519 17.8427 5.85658 29.8023C5.37322 36.7719 7.96494 42.9818 13.1806 46.5219C16.6147 48.8558 21.4114 50.1493 29.1866 50.1493C37.0952 50.1493 41.6296 48.4415 45.0637 46.1306C50.7857 42.2867 52.9723 36.155 52.4521 29.2868Z" fill="#FFC022"/>
<path d="M24.3944 16.586C20.9787 7.74746 13.5212 1.73543 10.6533 0.837771C9.57149 0.49712 8.21349 0.464896 7.60124 1.45923C6.0545 3.96808 4.07504 12.024 8.45287 23.4542L24.3944 16.586Z" fill="#FFC022"/>
<path d="M16.2925 12.7237C17.0014 12.1299 17.3467 11.5499 16.5687 10.3484C15.3626 8.48401 13.1944 6.30661 12.352 5.63911C10.971 4.54351 9.90298 4.17523 9.49328 5.93833C8.73372 9.19754 8.79357 13.6214 9.60837 16.0612C9.89378 16.922 10.7776 17.3778 11.4589 16.7839L16.2925 12.7237Z" fill="#FFD1D1"/>
<path d="M24.5786 17.7C25.0988 18.1419 26.1529 18.0775 26.7652 17.3686C27.5063 16.5077 28.2797 13.6076 27.7964 9.1239C25.6466 9.20216 23.6119 9.51059 21.7153 10.0308C23.2482 12.5442 23.6165 16.8806 24.5786 17.7Z" fill="#FF9B31"/>
<path d="M33.6749 17.7C33.1547 18.1419 32.1005 18.0775 31.4883 17.3686C30.7471 16.5077 29.9738 13.6076 30.4571 9.1239C32.6069 9.20216 34.6416 9.51059 36.5382 10.0308C35.0053 12.5442 34.637 16.8806 33.6749 17.7Z" fill="#FF9B31"/>
<path d="M36.4461 10.4267C40.1656 4.71386 45.3675 0.874628 47.5265 0.188723C48.5945 -0.151928 49.8374 -0.0966878 50.445 0.902249C51.9733 3.4111 53.2669 11.1402 50.2517 21.9628L39.2358 16.6505L36.4461 10.4267Z" fill="#FFC022"/>
<path d="M44.5712 14.5743C45.6898 15.6929 46.6012 16.4433 47.2595 17.1568C47.6969 17.631 48.4978 17.4146 48.6267 16.7793C49.7546 11.3473 49.3955 6.71632 48.6267 5.50102C48.2585 4.92099 47.5726 4.76908 46.9465 4.98084C45.8233 5.35371 42.96 7.48969 40.9391 10.6062C40.7043 10.9699 40.7918 11.4578 41.1508 11.7018C41.8782 12.1944 43.1487 13.1473 44.5712 14.5743Z" fill="#FFD1D1"/>
<path d="M25.2921 32.7669C25.2691 31.3491 27.3038 30.6724 29.2234 30.6402C31.1476 30.6079 33.2192 31.234 33.2422 32.6518C33.2652 34.0697 30.8392 35.9341 29.3109 35.9341C27.7872 35.9341 25.3197 34.1802 25.2921 32.7669Z" fill="black"/>
<path d="M2.74927 29.6735C2.90578 29.8622 4.77936 29.8346 9.35974 32.0074" stroke="#9E9E9E" stroke-width="1.38102" stroke-miterlimit="10" stroke-linecap="round"/>
<path d="M1 35.1193C1 35.1193 3.95538 34.0881 9.03753 34.9904" stroke="#9E9E9E" stroke-width="1.38102" stroke-miterlimit="10" stroke-linecap="round"/>
<path d="M3.72058 39.4603C3.72058 39.4603 4.98191 38.825 9.55308 38.4245" stroke="#9E9E9E" stroke-width="1.38102" stroke-miterlimit="10" stroke-linecap="round"/>
<path d="M55.3062 28.053C55.3062 28.053 53.7365 28.2049 48.8891 30.9716" stroke="#9E9E9E" stroke-width="1.38102" stroke-miterlimit="10" stroke-linecap="round"/>
<path d="M56.0197 33.1076C56.0197 33.1076 53.6766 32.9418 48.6313 34.0144" stroke="#9E9E9E" stroke-width="1.38102" stroke-miterlimit="10" stroke-linecap="round"/>
<path d="M55.1129 37.9687C55.1129 37.9687 52.8895 37.1816 48.3091 36.933" stroke="#9E9E9E" stroke-width="1.38102" stroke-miterlimit="10" stroke-linecap="round"/>
<path d="M43.899 27.5283C43.7425 30.0647 42.1682 31.4596 40.3774 31.4596C38.5867 31.4596 37.1367 29.6735 37.1367 27.473C37.1367 25.2726 38.6466 23.4635 40.6583 23.574C42.9922 23.7075 44.0279 25.4567 43.899 27.5283Z" fill="#000200"/>
<path d="M20.8406 27.2705C21.1997 29.853 20.1133 31.4273 18.3134 31.791C16.5134 32.1547 14.9713 30.944 14.5248 28.7343C14.0737 26.5201 14.9391 24.444 16.983 24.1448C19.3537 23.7995 20.546 25.1575 20.8406 27.2705Z" fill="#000200"/>
<path d="M20.3756 36.1781C19.1926 36.9468 20.592 38.7284 21.4114 39.3314C22.2308 39.9344 23.7039 40.6756 25.8629 40.4546C28.4132 40.1968 29.1451 38.2956 29.1451 38.2956C29.1451 38.2956 30.052 40.4132 33.2053 40.5007C36.4047 40.5881 37.3944 38.8573 37.8271 38.3417C38.2598 37.8215 38.6925 36.4819 37.956 35.9663C37.2195 35.4461 36.7039 36.0952 35.9259 37.177C35.1479 38.2588 33.5506 38.8619 31.9946 38.1253C30.4387 37.3888 30.3512 34.8845 30.3512 34.8845L28.1462 35.0134C28.1462 35.0134 27.8009 37.1724 26.8066 37.8629C25.8122 38.5534 23.4369 38.7284 22.4426 37.2138C22.0052 36.5417 21.37 35.529 20.3756 36.1781Z" fill="black"/>
</svg>
