<svg width="26" height="14" viewBox="0 0 56 45" fill="none" xmlns="http://www.w3.org/2000/svg">
<path d="M21.3316 30.3411C21.3316 32.7368 20.0822 36.6569 17.1249 36.6569C14.1676 36.6569 12.9182 32.7368 12.9182 30.3411C12.9182 27.9455 14.1676 24.0253 17.1249 24.0253C20.0822 24.0253 21.3316 27.9455 21.3316 30.3411ZM55.0198 24.5526C55.0198 28.2091 54.653 32.0834 53.0138 35.4419C48.6696 44.2221 36.7257 44.0158 28.1747 44.0158C19.4862 44.0158 6.83162 44.3253 2.31541 35.4419C0.641897 32.1178 0 28.2091 0 24.5526C0 19.7498 1.59328 15.2107 4.75692 11.5312C4.16087 9.72016 3.87431 7.81739 3.87431 5.93755C3.87431 3.47312 4.43597 2.23518 5.54783 0C10.7403 0 14.0644 1.03162 18.019 4.12648C21.3431 3.33557 24.7589 2.98024 28.1862 2.98024C31.281 2.98024 34.3988 3.31265 37.402 4.03478C41.2992 0.974308 44.6233 0 49.7585 0C50.8818 2.23518 51.432 3.47312 51.432 5.93755C51.432 7.81739 51.134 9.68577 50.5494 11.4624C53.7016 15.1763 55.0198 19.7498 55.0198 24.5526ZM47.6494 30.3411C47.6494 25.3091 44.5889 20.8731 39.2245 20.8731C37.0581 20.8731 34.9834 21.2628 32.8055 21.5609C31.0976 21.8245 29.3897 21.9277 27.636 21.9277C25.8937 21.9277 24.1858 21.8245 22.4664 21.5609C20.3229 21.2628 18.2253 20.8731 16.0474 20.8731C10.683 20.8731 7.62253 25.3091 7.62253 30.3411C7.62253 40.4051 16.8383 41.9526 24.8621 41.9526H30.387C38.4451 41.9526 47.6494 40.4166 47.6494 30.3411ZM38.1814 24.0253C35.2241 24.0253 33.9747 27.9455 33.9747 30.3411C33.9747 32.7368 35.2241 36.6569 38.1814 36.6569C41.1387 36.6569 42.3881 32.7368 42.3881 30.3411C42.3881 27.9455 41.1387 24.0253 38.1814 24.0253Z" fill="black"/>
</svg>
