<svg width="24" height="14" viewBox="0 0 56 56" fill="none" xmlns="http://www.w3.org/2000/svg">
<path d="M51.0898 0H3.9177C1.75621 0 0 1.78077 0 3.96683V51.0529C0 53.239 1.75621 55.0198 3.9177 55.0198H51.0898C53.2513 55.0198 55.0198 53.239 55.0198 51.0529V3.96683C55.0198 1.78077 53.2513 0 51.0898 0ZM16.6287 47.1598H8.47403V20.9026H16.641V47.1598H16.6287ZM12.5514 17.3165C9.93549 17.3165 7.82312 15.1918 7.82312 12.5882C7.82312 9.98461 9.93549 7.85997 12.5514 7.85997C15.155 7.85997 17.2796 9.98461 17.2796 12.5882C17.2796 15.2041 15.1673 17.3165 12.5514 17.3165ZM47.1966 47.1598H39.0419V34.3873C39.0419 31.3416 38.9805 27.4239 34.8049 27.4239C30.5556 27.4239 29.9047 30.7398 29.9047 34.1663V47.1598H21.75V20.9026H29.5731V24.4887H29.6836C30.7767 22.4255 33.4417 20.2517 37.4085 20.2517C45.6615 20.2517 47.1966 25.6923 47.1966 32.7662V47.1598Z" fill="#3E92F5"/>
</svg>
