<svg width="24" height="12" viewBox="0 0 56 42" fill="none" xmlns="http://www.w3.org/2000/svg">
<path id="cv-mail" d="M53.9774 13.626C54.3965 13.2929 55.0198 13.6045 55.0198 14.1311V36.1067C55.0198 38.9544 52.7094 41.2648 49.8617 41.2648H5.1581C2.3104 41.2648 0 38.9544 0 36.1067V14.1418C0 13.6045 0.612525 13.3036 1.04237 13.6367C3.44948 15.5065 6.64106 17.8814 17.602 25.8442C19.8694 27.4991 23.695 30.9809 27.5099 30.9594C31.3462 30.9916 35.247 27.4347 37.4285 25.8442C48.3894 17.8814 51.5703 15.4958 53.9774 13.626ZM27.5099 27.5099C30.003 27.5529 33.5921 24.372 35.3975 23.061C49.6575 12.7126 50.7428 11.8099 54.0311 9.23085C54.6544 8.74728 55.0198 7.99506 55.0198 7.19985V5.1581C55.0198 2.3104 52.7094 0 49.8617 0H5.1581C2.3104 0 0 2.3104 0 5.1581V7.19985C0 7.99506 0.365366 8.73654 0.988636 9.23085C4.27693 11.7992 5.36228 12.7126 19.6223 23.061C21.4276 24.372 25.0168 27.5529 27.5099 27.5099Z" fill="currentColor" />
</svg>
