<svg width="24" height="12" viewBox="0 0 56 56" enable-background="new 0 0 56 56" xmlns="http://www.w3.org/2000/svg">
<path id="cv-phone" d="M53.4507 38.8789L41.4149 33.7207C40.9007 33.5016 40.3293 33.4554 39.7866 33.5891C39.244 33.7229 38.7594 34.0293 38.406 34.4622L33.0758 40.9744C24.7107 37.0303 17.9787 30.2983 14.0346 21.9332L20.5468 16.603C20.9806 16.2502 21.2876 15.7657 21.4214 15.2227C21.5552 14.6798 21.5085 14.1081 21.2883 13.5941L16.1301 1.5583C15.8884 1.00424 15.461 0.551861 14.9215 0.279178C14.382 0.00649626 13.7643 -0.0693997 13.1749 0.0645776L1.9988 2.64367C1.43051 2.7749 0.923472 3.09488 0.560454 3.55139C0.197435 4.0079 -0.000130912 4.57397 6.50814e-08 5.15722C6.50814e-08 32.7213 22.3414 55.0197 49.8625 55.0197C50.446 55.0201 51.0123 54.8227 51.469 54.4596C51.9257 54.0966 52.2459 53.5894 52.3771 53.0209L54.9562 41.8449C55.0893 41.2525 55.0118 40.6324 54.7371 40.091C54.4623 39.5497 54.0074 39.1211 53.4507 38.8789Z" fill="currentColor"/>
</svg>
