<svg width="24" height="12" viewBox="0 0 56 45" fill="none" xmlns="http://www.w3.org/2000/svg">
<path d="M49.3643 11.1366C49.3992 11.6253 49.3992 12.1142 49.3992 12.6029C49.3992 27.5099 38.0532 44.6862 17.3159 44.6862C10.9272 44.6862 4.99231 42.8358 0 39.6242C0.907722 39.7288 1.78041 39.7638 2.72306 39.7638C7.99455 39.7638 12.8473 37.9833 16.7224 34.9461C11.765 34.8413 7.61059 31.5946 6.17922 27.1259C6.8775 27.2306 7.57567 27.3004 8.30888 27.3004C9.32126 27.3004 10.3338 27.1607 11.2763 26.9165C6.10947 25.8691 2.23422 21.3307 2.23422 15.8496V15.71C3.73534 16.5479 5.48104 17.0716 7.3312 17.1413C4.29392 15.1164 2.30407 11.6603 2.30407 7.75019C2.30407 5.65556 2.86254 3.73545 3.84011 2.0597C9.39101 8.90227 17.7348 13.3708 27.0909 13.8597C26.9164 13.0218 26.8116 12.1491 26.8116 11.2763C26.8116 5.06205 31.8388 0 38.0879 0C41.3346 0 44.2671 1.36153 46.3269 3.56093C48.8754 3.0722 51.3191 2.12955 53.4837 0.837873C52.6457 3.45626 50.8653 5.65567 48.5263 7.05201C50.7956 6.80775 52.995 6.17922 55.0198 5.30653C53.4839 7.54074 51.5637 9.5306 49.3643 11.1366Z" fill="#2C9BDA"/>
</svg>
