<svg width="20" height="20" viewBox="0 0 56 56" fill="none" xmlns="http://www.w3.org/2000/svg">
<path d="M38.0593 27.5002L37.7057 27.8538L38.0593 28.2073L53.8962 44.0442C53.8963 44.0443 53.8963 44.0443 53.8964 44.0444C55.6447 45.7943 55.6444 48.6286 53.8964 50.3767L50.3767 53.8964C48.6285 55.6445 45.7925 55.6445 44.0444 53.8964L28.2073 38.0593L27.8538 37.7057L27.5002 38.0593L11.6631 53.8964C9.91496 55.6445 7.079 55.6445 5.33083 53.8964L1.81127 50.3768C1.81122 50.3768 1.81118 50.3767 1.81113 50.3767C0.0628306 48.6268 0.063085 45.7924 1.81113 44.0444L17.6482 28.2073L18.0018 27.8538L17.6482 27.5002L1.81127 11.6633C1.81122 11.6632 1.81118 11.6632 1.81113 11.6631C0.0628301 9.91325 0.0630849 7.07887 1.81113 5.33083L5.33069 1.81127C5.33073 1.81122 5.33078 1.81118 5.33083 1.81113C7.08071 0.0628301 9.91508 0.0630849 11.6631 1.81113L27.5002 17.6482L27.8538 18.0018L28.2073 17.6482L44.0442 1.81127C44.0443 1.81122 44.0443 1.81118 44.0444 1.81113C45.7943 0.0628306 48.6286 0.063085 50.3767 1.81113L53.8962 5.33068C53.8963 5.33073 53.8963 5.33078 53.8964 5.33083C55.6447 7.08071 55.6444 9.91508 53.8964 11.6631L38.0593 27.5002Z" fill="black" stroke="black"/>
</svg>
