<svg width="32" height="32" viewBox="0 0 56 56" fill="none" xmlns="http://www.w3.org/2000/svg">
<path d="M27.8538 0C12.4668 0 0 12.4668 0 27.8538C0 43.2407 12.4668 55.7075 27.8538 55.7075C43.2407 55.7075 55.7075 43.2407 55.7075 27.8538C55.7075 12.4668 43.2407 0 27.8538 0ZM27.8538 50.3165C15.4656 50.3165 5.39105 40.2419 5.39105 27.8538C5.39105 15.4656 15.4656 5.39105 27.8538 5.39105C40.2419 5.39105 50.3165 15.4656 50.3165 27.8538C50.3165 40.2419 40.2419 50.3165 27.8538 50.3165ZM22.4627 22.4627C22.4627 20.4748 20.8566 18.8687 18.8687 18.8687C16.8807 18.8687 15.2746 20.4748 15.2746 22.4627C15.2746 24.4507 16.8807 26.0567 18.8687 26.0567C20.8566 26.0567 22.4627 24.4507 22.4627 22.4627ZM36.8388 18.8687C34.8509 18.8687 33.2448 20.4748 33.2448 22.4627C33.2448 24.4507 34.8509 26.0567 36.8388 26.0567C38.8268 26.0567 40.4329 24.4507 40.4329 22.4627C40.4329 20.4748 38.8268 18.8687 36.8388 18.8687ZM27.8538 31.4478C23.8554 31.4478 17.8803 33.8401 17.0941 38.3214C16.8695 39.6467 18.1049 40.7361 19.3965 40.3542C22.9007 39.276 26.068 38.6358 27.8538 38.6358C29.6395 38.6358 32.8068 39.276 36.311 40.3542C37.5913 40.7473 38.838 39.6467 38.6134 38.3214C37.8272 33.8401 31.8521 31.4478 27.8538 31.4478Z" fill="black"/>
</svg>
