<svg width="32" height="32" viewBox="0 0 56 56" fill="none" xmlns="http://www.w3.org/2000/svg">
<path d="M27.8538 0C12.4668 0 0 12.4668 0 27.8538C0 43.2407 12.4668 55.7075 27.8538 55.7075C43.2407 55.7075 55.7075 43.2407 55.7075 27.8538C55.7075 12.4668 43.2407 0 27.8538 0ZM43.7349 43.7349C39.4894 47.9803 33.8513 50.3165 27.8538 50.3165C21.8562 50.3165 16.2181 47.9803 11.9726 43.7349C7.72717 39.4894 5.39105 33.8513 5.39105 27.8538C5.39105 21.8562 7.72717 16.2181 11.9726 11.9726C16.2181 7.72717 21.8562 5.39105 27.8538 5.39105C33.8513 5.39105 39.4894 7.72717 43.7349 11.9726C47.9803 16.2181 50.3165 21.8562 50.3165 27.8538C50.3165 33.8513 47.9803 39.4894 43.7349 43.7349ZM36.8388 16.1731C34.1658 16.1731 30.9199 19.4639 30.5493 24.1923C30.4707 25.1582 31.7623 25.5289 32.2227 24.6977L33.2897 22.7884C34.1545 21.2497 35.4461 20.3624 36.8276 20.3624C38.2091 20.3624 39.5007 21.2497 40.3655 22.7884L41.4325 24.6977C41.8929 25.5289 43.1845 25.147 43.1059 24.1923C42.7578 19.4639 39.5119 16.1731 36.8388 16.1731ZM14.2638 24.6977L15.3308 22.7884C16.1956 21.2497 17.4872 20.3624 18.8687 20.3624C20.2501 20.3624 21.5417 21.2497 22.4065 22.7884L23.4735 24.6977C23.934 25.5289 25.2256 25.147 25.147 24.1923C24.7764 19.4639 21.5305 16.1731 18.8574 16.1731C16.1844 16.1731 12.9385 19.4639 12.5679 24.1923C12.5005 25.147 13.7921 25.5289 14.2638 24.6977ZM40.7024 31.4478H15.0051C14.0841 31.4478 13.3765 32.234 13.4889 33.1325C14.3312 39.7814 20.1041 44.9254 27.09 44.9254H28.6175C35.6034 44.9254 41.3763 39.7814 42.2187 33.1325C42.331 32.234 41.6234 31.4478 40.7024 31.4478Z" fill="black"/>
</svg>
